<svg preserveAspectRatio="xMidYMid meet" viewBox="0 0 2160.000000 852.000000" height="852.000000pt" width="2160.000000pt" xmlns="http://www.w3.org/2000/svg" version="1.0">

<g stroke="none" fill="#000000" transform="translate(0.000000,852.000000) scale(0.100000,-0.100000)">
<path d="M4254 6316 c-76 -18 -133 -46 -414 -209 -565 -327 -775 -449 -904
-522 -163 -94 -244 -167 -298 -272 -77 -146 -73 -93 -73 -993 0 -753 1 -809
18 -865 40 -128 119 -244 217 -317 19 -14 143 -88 275 -163 327 -189 574 -331
800 -462 105 -61 219 -125 254 -142 159 -81 354 -79 515 4 57 30 344 195 931
535 55 32 163 94 239 138 213 122 289 202 355 370 l26 67 0 830 c0 785 -1 833
-19 885 -62 184 -148 272 -402 417 -98 56 -244 139 -324 185 -218 126 -612
353 -729 421 -57 33 -131 69 -165 79 -80 25 -223 32 -302 14z m272 -275 c28
-10 169 -87 315 -171 287 -166 553 -320 664 -383 290 -164 351 -215 408 -335
l32 -67 0 -765 0 -765 -32 -67 c-57 -120 -119 -171 -408 -335 -38 -22 -155
-89 -260 -150 -757 -436 -699 -405 -791 -422 -76 -14 -182 2 -262 39 -35 16
-120 63 -190 104 -70 40 -215 124 -322 186 -107 62 -238 137 -290 167 -52 31
-126 73 -165 96 -265 152 -304 183 -354 278 -62 115 -61 97 -61 869 0 760 0
751 54 858 52 103 96 139 356 287 69 40 202 116 295 170 94 54 229 132 300
173 72 41 171 99 222 129 221 129 341 155 489 104z"></path>
<path d="M4340 5949 c-30 -4 -64 -10 -75 -15 -21 -8 -238 -132 -655 -374 -135
-78 -310 -179 -389 -223 -176 -100 -228 -145 -267 -229 l-29 -63 0 -725 0
-725 29 -63 c39 -84 91 -129 267 -229 79 -44 254 -145 389 -223 510 -295 638
-368 672 -379 50 -16 155 -15 204 2 23 9 100 49 170 90 71 40 203 117 294 169
91 53 296 170 455 262 326 187 375 227 413 329 22 57 22 65 22 767 0 702 0
710 -22 767 -33 90 -97 147 -278 251 -85 49 -247 142 -360 207 -113 65 -230
133 -260 150 -30 17 -130 75 -223 129 -220 127 -251 138 -357 125z m207 -662
c48 -26 83 -83 83 -135 0 -38 -2 -43 -17 -37 -30 12 -185 35 -234 35 -46 0
-202 -24 -233 -36 -13 -5 -16 1 -16 32 1 71 56 139 123 154 18 4 84 7 147 6
89 -1 122 -5 147 -19z m-4 -263 c115 -25 227 -84 311 -164 116 -111 154 -210
176 -465 24 -281 62 -457 136 -625 27 -64 37 -100 38 -145 2 -97 63 -90 -819
-90 -820 0 -817 0 -829 51 -10 38 3 89 50 206 72 177 99 304 129 613 9 88 23
187 31 220 50 194 229 350 459 400 84 19 232 18 318 -1z m-33 -1609 c0 -22
-58 -67 -99 -76 -31 -7 -50 -5 -81 7 -36 15 -80 55 -80 74 0 4 59 7 130 7 91
0 130 -4 130 -12z"></path>
<path d="M18675 4998 c-3 -7 -4 -312 -3 -678 l3 -665 80 0 80 0 3 678 2 677
-80 0 c-55 0 -82 -4 -85 -12z"></path>
<path d="M7200 4285 l0 -635 368 2 367 3 3 78 3 77 -281 0 -280 0 0 555 0 555
-90 0 -90 0 0 -635z"></path>
<path d="M9470 4284 l0 -637 263 6 c281 6 344 15 438 62 71 37 124 88 156 153
25 50 28 68 27 147 0 62 -6 102 -18 128 -37 82 -130 156 -219 172 l-38 7 48
23 c108 50 163 126 171 235 7 100 -18 169 -84 235 -38 38 -69 59 -115 76 -60
21 -81 23 -346 27 l-283 3 0 -637z m558 454 c61 -31 84 -65 90 -132 6 -74 -2
-99 -44 -146 -51 -56 -101 -69 -282 -71 l-147 -1 -3 191 -2 190 102 3 c142 4
232 -7 286 -34z m24 -527 c93 -36 134 -104 126 -207 -6 -75 -42 -125 -115
-161 -56 -27 -63 -28 -240 -31 l-183 -4 0 210 c0 115 3 212 8 216 4 5 84 6
177 4 144 -4 179 -9 227 -27z"></path>
<path d="M13292 4288 l3 -633 80 0 80 0 3 283 2 282 98 0 97 0 161 -283 161
-282 107 -3 107 -3 -12 23 c-12 23 -118 198 -261 430 -43 70 -78 129 -78 132
0 2 21 9 47 15 104 27 179 86 224 176 30 61 31 69 27 162 -3 87 -7 105 -34
153 -38 68 -105 121 -193 151 -61 21 -85 23 -344 27 l-277 4 2 -634z m528 466
c100 -30 159 -118 144 -214 -10 -62 -42 -101 -109 -135 -58 -29 -65 -30 -227
-33 l-168 -4 0 201 0 201 153 0 c112 0 168 -4 207 -16z"></path>
<path d="M14980 4882 c-14 -20 -53 -77 -88 -127 l-63 -90 66 -3 66 -3 112 117
c62 64 116 123 120 130 7 12 -10 14 -90 14 l-98 0 -25 -38z"></path>
<path d="M18054 4902 c-71 -45 -67 -148 8 -185 46 -22 86 -16 128 20 25 21 30
32 30 69 0 88 -93 141 -166 96z"></path>
<path d="M8575 4523 c-60 -8 -154 -45 -198 -76 -59 -42 -102 -97 -140 -176
-27 -57 -31 -78 -35 -170 -3 -85 0 -118 16 -167 23 -75 81 -164 132 -204 135
-107 349 -128 505 -50 66 33 75 40 123 91 l33 36 -58 45 -58 45 -53 -47 c-165
-147 -435 -68 -468 138 l-7 42 336 0 c386 0 350 -13 337 117 -19 179 -101 298
-246 352 -51 19 -166 32 -219 24z m172 -154 c72 -35 123 -115 123 -193 l0 -26
-250 0 -250 0 0 23 c1 64 67 154 142 191 68 34 170 36 235 5z"></path>
<path d="M11105 4519 c-266 -44 -427 -293 -360 -554 47 -177 182 -298 366
-326 262 -41 498 127 527 374 31 256 -122 466 -368 506 -73 12 -94 12 -165 0z
m200 -158 c55 -24 103 -75 134 -141 22 -46 26 -69 26 -140 0 -77 -3 -92 -33
-153 -105 -213 -399 -206 -501 13 -35 75 -36 201 -3 275 25 55 69 105 119 136
65 41 177 45 258 10z"></path>
<path d="M12427 4520 c-20 -6 -55 -19 -77 -30 -42 -21 -120 -94 -120 -112 0
-6 -3 -8 -7 -4 -8 7 -8 13 -11 84 l-2 42 -81 0 -82 0 7 -61 c3 -34 6 -226 6
-426 l0 -364 83 3 82 3 5 280 c5 274 6 281 30 329 45 88 141 136 234 116 67
-14 99 -40 127 -102 22 -50 24 -67 29 -338 l5 -285 78 -3 78 -3 -3 328 c-3
311 -4 330 -24 374 -28 60 -93 125 -148 149 -53 22 -158 32 -209 20z"></path>
<path d="M14837 4520 c-125 -21 -252 -114 -305 -223 -94 -193 -59 -414 88
-551 158 -148 434 -152 607 -10 70 58 71 65 7 119 l-55 47 -50 -47 c-67 -62
-108 -79 -199 -79 -89 0 -154 28 -213 93 -30 33 -67 118 -67 153 0 4 154 8
341 8 l342 0 -6 88 c-16 227 -133 370 -328 402 -72 11 -93 11 -162 0z m192
-149 c69 -36 115 -105 123 -186 l3 -30 -253 -3 -254 -2 7 32 c18 81 88 166
160 192 60 22 168 20 214 -3z"></path>
<path d="M17121 4519 c-75 -13 -174 -64 -225 -116 -85 -86 -126 -193 -126
-329 0 -246 161 -420 407 -440 141 -11 266 33 357 125 l47 47 -58 46 -58 46
-52 -48 c-116 -107 -293 -103 -401 9 -38 39 -72 112 -72 153 0 17 18 18 334
18 386 0 351 -13 336 119 -26 230 -153 357 -375 375 -33 3 -84 0 -114 -5z
m195 -148 c69 -32 124 -117 124 -195 l0 -26 -250 0 -250 0 0 23 c1 64 67 154
142 191 65 33 170 36 234 7z"></path>
<path d="M15620 4491 c0 -4 48 -125 106 -267 58 -143 133 -326 166 -409 33
-82 65 -153 72 -157 17 -12 164 -7 175 6 5 6 83 197 174 424 l165 413 -90 -3
-90 -3 -120 -320 c-66 -176 -123 -323 -127 -328 -4 -4 -49 106 -100 245 -52
139 -107 288 -123 331 l-30 77 -89 0 c-49 0 -89 -4 -89 -9z"></path>
<path d="M18032 4078 l3 -423 80 0 80 0 3 423 2 422 -85 0 -85 0 2 -422z"></path>
</g>
</svg>
